<svg xmlns="http://www.w3.org/2000/svg" width="250" height="220" viewBox="0 0 125 110"><path fill="#fff" d="M100.0485 37.757c0 20.738-16.813 37.549-37.549 37.549-20.739 0-37.55-16.811-37.55-37.549 0-20.737 16.811-37.548 37.55-37.548 20.736 0 37.549 16.811 37.549 37.548"/><path fill="#003764" d="M80.1235 35.14c-5.973-4.059-13.619-2.406-17.64 3.697-3.344 5.101-8.405 5.736-10.355 5.736-6.395 0-10.758-4.496-12.055-9.144h-.004c-.016-.051-.025-.091-.037-.133-.013-.052-.023-.103-.039-.156-.51-1.943-.639-2.866-.639-4.928 0-11.112 11.409-23.489 27.828-23.489 16.82 0 26.446 12.804 28.934 19.922-.05-.133-.091-.253-.131-.378-4.772-13.92-17.97-23.926-33.518-23.926-19.549 0-35.407 15.85-35.407 35.415 0 17.484 12.61 32.448 30.106 32.448 13.947 0 23.324-7.819 27.619-18.601 2.361-5.899.693-12.826-4.662-16.463"/><path fill="#e4032e" d="M96.3325 27.333c-2.075-6.944-11.763-20.61-29.151-20.61-16.418 0-27.828 12.378-27.828 23.489 0 2.062.129 2.985.639 4.928-.213-.851-.322-1.698-.322-2.527 0-11.575 11.587-19.593 23.499-19.593 16.131 0 29.204 13.073 29.204 29.197 0 12.639-7.276 23.587-17.841 28.842v.009c13.625-4.934 23.354-17.986 23.354-33.312 0-3.627-.486-6.826-1.554-10.423"/><path fill="#575757" d="M15.6895 88.767h2.423v20.363h-2.423v-9.813h-2.718v9.694h-2.371V88.787h2.371v8.359h2.718ZM.2615 90.021h8.555v2.241h-6.023v11.844h6.275v2.218H.2615z"/><path fill="#575757" d="M38.1835 94.317h2.919v2.213h-2.919v5.274h-2.538V88.767h2.538Zm-8.471 3.035c0-.625-.218-1.163-.654-1.609-.446-.453-.982-.683-1.605-.683-.62 0-1.15.23-1.592.683-.441.446-.664.984-.664 1.609 0 .623.223 1.156.664 1.586.442.432.972.649 1.592.649.623 0 1.159-.217 1.605-.649.436-.43.654-.963.654-1.586m2.452.024c0 .606-.137 1.172-.381 1.691-.249.517-.586.976-.996 1.385-.439.399-.946.717-1.511.933-.578.237-1.181.352-1.845.352-.65 0-1.266-.115-1.835-.352-.569-.216-1.072-.534-1.494-.933-.422-.409-.766-.868-1.015-1.385-.256-.519-.377-1.085-.377-1.691 0-.612.121-1.18.377-1.713.249-.532.593-.994 1.015-1.393.422-.395.925-.713 1.494-.954.569-.228 1.185-.347 1.835-.347.664 0 1.267.119 1.845.347.565.241 1.072.559 1.511.954.41.399.747.861.996 1.393.244.533.381 1.101.381 1.713m-9.96 11.343v-6.184h2.533v3.965h13.878v2.219zm-.91-16.254v-2.167h4.793v-1.94h2.694v1.94h4.82v2.167Z"/><path fill="#575757" d="M58.3165 88.767h2.533v13.038h-2.533zm-6.573 2.782h-5.478v6.098h5.478zm-7.392 17.171v-6.797h2.507v4.559h14.174v2.238zm-.595-19.354h10.474v10.448h-10.474z"/><path fill="#575757" d="M81.2475 89.18v6.074h-2.535v-3.84h-13.166V89.18Zm0 12.896v7.095h-2.535v-4.878h-13.391v-2.217h6.82V99.09h-8.101v-2.217h18.715v2.217h-8.098v2.986z"/><path fill="#575757" d="M100.6785 99.566v-4.407h-3.787v-2.19h3.787v-4.202h2.525v10.799Zm-1.691 5.206c0-.77-.282-1.413-.837-1.961-.555-.554-1.222-.824-1.997-.824-.764 0-1.411.27-1.958.824-.548.548-.821 1.191-.821 1.961 0 .767.273 1.43.821 1.971.547.54 1.194.807 1.958.807.775 0 1.442-.267 1.997-.807.555-.541.837-1.204.837-1.971m2.487.017c0 .686-.137 1.331-.421 1.934-.283.601-.665 1.125-1.127 1.585-.477.456-1.036.811-1.686 1.085-.645.267-1.328.398-2.063.398-.719 0-1.395-.131-2.051-.398-.657-.274-1.221-.629-1.686-1.085-.474-.46-.851-.984-1.134-1.585-.282-.603-.417-1.248-.417-1.934 0-.683.135-1.322.417-1.923.283-.605.66-1.129 1.134-1.592.465-.454 1.029-.822 1.686-1.079.656-.274 1.332-.409 2.051-.409.735 0 1.418.135 2.063.409.65.257 1.209.625 1.686 1.079.462.463.844.987 1.127 1.592.284.601.421 1.24.421 1.923m-16.136-13.265v-2.159h11.64v2.159h-4.975l5.179 6.332-1.756 1.461-4.203-5.23-4.128 5.568-1.824-1.461 5.181-6.67z"/><path fill="#575757" d="M120.7285 93.868h-10.711v2.806h10.711zm-10.711-2.194h10.711v-2.575h2.509v9.789h-15.712v-9.789h2.492zm-3.989 9.952h18.71v2.241h-8.096v5.249h-2.542v-5.249h-8.072z"/></svg>